<svg width="32" height="32" viewBox="0 0 32 32" fill="none" xmlns="http://www.w3.org/2000/svg">
<ellipse cx="16" cy="17.5" rx="14" ry="13.5" fill="#FFD361"/>
<path fill-rule="evenodd" clip-rule="evenodd" d="M13 0.842105C13 1.30719 13.3771 1.68421 13.8422 1.68421H15.3999V3.94085C7.39381 4.23559 1 10.4016 1 17.9649C1 25.7163 7.71573 32 16 32C24.2843 32 31 25.7163 31 17.9649C31 10.5914 24.9231 4.54601 17.1999 3.97407V1.68421H18.7579C19.223 1.68421 19.6 1.30719 19.6 0.842105C19.6 0.377023 19.223 0 18.7579 0H13.8422C13.3771 0 13 0.377023 13 0.842105ZM16 29.193C22.6274 29.193 28 24.1661 28 17.965C28 11.7639 22.6274 6.73689 16 6.73689C9.37254 6.73689 3.99995 11.7639 3.99995 17.965C3.99995 24.1661 9.37254 29.193 16 29.193ZM16.2999 8.42097C15.8028 8.42097 15.3999 8.82391 15.3999 9.32097V16.7648C15.3999 16.7894 15.4006 16.8137 15.4021 16.8379L11.4063 18.9964C10.9899 19.2214 10.8538 19.7303 11.1024 20.133C11.3509 20.5358 11.8899 20.68 12.3063 20.455L16.4537 18.2146C16.5844 18.1439 16.6914 18.0494 16.7725 17.9396C17.0197 17.8655 17.1999 17.6362 17.1999 17.3648V9.32097C17.1999 8.82391 16.7969 8.42097 16.2999 8.42097Z" fill="#B88400"/>
</svg>
