<svg width="14" height="24" viewBox="0 0 14 24" fill="none" xmlns="http://www.w3.org/2000/svg">
<path d="M11.7429 9.38064C11.7382 9.37597 11.7306 9.37598 11.726 9.38065C11.7213 9.38531 11.7137 9.38532 11.7091 9.38065L3.74264 1.41421C2.9616 0.633165 1.69526 0.633167 0.914215 1.41422C0.133167 2.19526 0.133164 3.46159 0.914213 4.24264L7.47489 10.8033C8.25593 11.5844 8.25594 12.8507 7.47489 13.6317L1.30765 19.799C0.526598 20.58 0.526598 21.8464 1.30765 22.6274C2.0887 23.4085 3.35503 23.4085 4.13608 22.6274L10.1816 16.5819C10.1818 16.5816 10.1818 16.5812 10.1816 16.581C10.1814 16.5808 10.1813 16.5804 10.1816 16.5801L13.1488 13.6129C13.9293 12.8324 13.9293 11.5671 13.1488 10.7866L11.7429 9.38064Z" fill="white"/>
</svg>
