<svg width="460" height="458" viewBox="0 0 460 458" fill="none" xmlns="http://www.w3.org/2000/svg">
<path fill-rule="evenodd" clip-rule="evenodd" d="M230 458H254L262.42 418.196C289.717 413.492 315.047 403.04 337.119 388.13L374.548 412.489L408.489 378.548L384.841 342.211C401.997 318.815 413.994 291.399 419.158 261.64L460 253V205L419.335 196.398C414.315 166.491 402.399 138.924 385.277 115.386L408.489 79.7193L374.548 45.7782L338.071 69.5169C315.718 54.2222 289.975 43.519 262.201 38.7662L254 0H230V77C313.947 77 382 145.053 382 229C382 312.947 313.947 381 230 381V458Z" fill="#B88400"/>
<path fill-rule="evenodd" clip-rule="evenodd" d="M230 458H206L197.58 418.196C170.283 413.492 144.953 403.04 122.881 388.13L85.4526 412.489L51.5115 378.548L75.1589 342.212C58.0032 318.815 46.0058 291.399 40.8421 261.64L1.52588e-05 253V205L40.6651 196.398C45.6854 166.491 57.6016 138.924 74.7225 115.386L51.5108 79.7193L85.4519 45.7782L121.929 69.5171C144.282 54.2223 170.025 43.5191 197.8 38.7662L206 0H230V77C230 77 230 77 230 77C146.052 77 77.9998 145.053 77.9998 229C77.9998 312.947 146.052 381 230 381C230 381 230 381 230 381V458Z" fill="#CD9505"/>
<path fill-rule="evenodd" clip-rule="evenodd" d="M159.518 167.121C158.347 165.95 156.447 165.95 155.276 167.121L95.8787 226.518C95.2445 227.153 94.9536 228 95.006 228.83C94.9534 229.66 95.2443 230.508 95.8787 231.142L155.276 290.539C156.447 291.711 158.347 291.711 159.518 290.539L169.418 280.64C170.589 279.468 170.589 277.569 169.418 276.397L121.851 228.83L169.418 181.263C170.589 180.092 170.589 178.192 169.418 177.021L159.518 167.121Z" fill="#CD9505"/>
<path fill-rule="evenodd" clip-rule="evenodd" d="M306.223 166.873C307.401 165.709 309.312 165.709 310.49 166.873L370.618 226.296C371.256 226.926 371.548 227.769 371.495 228.594C371.549 229.42 371.256 230.263 370.618 230.894L310.49 290.317C309.312 291.481 307.401 291.481 306.223 290.317L296.18 280.392C295.002 279.227 295.002 277.339 296.18 276.174L344.324 228.595L296.18 181.016C295.002 179.851 295.002 177.963 296.18 176.798L306.223 166.873Z" fill="#B88400"/>
<path fill-rule="evenodd" clip-rule="evenodd" d="M237.484 173.903L253.4 137.007C244.547 136.799 236.194 141.569 230.572 149.587V196.297C230.95 196.833 231.343 197.356 231.748 197.864L230.572 200.591V248.91L248.165 208.126C263.175 210.897 277.667 198.98 281.121 180.533C283.13 169.805 280.981 159.129 275.972 151.03L259.902 188.282L247.049 185.964L237.484 173.903Z" fill="#B88400"/>
<path fill-rule="evenodd" clip-rule="evenodd" d="M230.572 149.783C227.561 154.075 225.333 159.299 224.231 165.188C222.068 176.733 224.721 188.217 230.572 196.493V149.783ZM230.572 200.787L201.372 268.475C200.859 268.421 200.341 268.39 199.818 268.381C188.009 268.186 178.243 279.756 178.004 294.223C177.765 308.69 187.144 320.577 198.952 320.771C210.76 320.967 220.526 309.396 220.765 294.929C220.857 289.412 219.549 284.27 217.241 280.008L230.572 249.106V200.787ZM281.572 167.621C281.96 170.917 281.974 174.326 281.572 177.765V167.621ZM199.096 312.04C206.968 312.17 213.479 304.457 213.639 294.812C213.798 285.167 207.545 277.243 199.673 277.113C191.801 276.982 185.29 284.696 185.131 294.341C184.972 303.985 191.224 311.91 199.096 312.04Z" fill="#CD9505"/>
</svg>
