<svg width="73" height="73" viewBox="0 0 73 73" fill="none" xmlns="http://www.w3.org/2000/svg">
<path d="M56.7498 47.183L56.7126 47.2242L56.6802 47.2693L42.1008 67.5482L42.0602 67.5187L41.485 68.3985C40.1797 70.3949 38.7056 71.7112 36.8326 71.9918C34.0477 71.6309 32.0561 69.6261 30.3644 66.8768L30.3434 66.8427L30.3198 66.8104L15.0324 45.9188L15.0202 45.9022L15.0074 45.8861C11.2387 41.1572 8.98438 35.1548 8.98438 28.6193C8.98438 13.3598 21.2774 1 36.4287 1C51.58 1 63.873 13.3598 63.873 28.6193C63.873 35.7676 61.176 42.2788 56.7498 47.183ZM36.4287 50.7727C49.0354 50.7727 59.2773 40.6807 59.2773 28.2045C59.2773 15.7283 49.0354 5.63636 36.4287 5.63636C23.822 5.63636 13.5802 15.7283 13.5802 28.2045C13.5802 40.6807 23.822 50.7727 36.4287 50.7727Z" fill="#FFD361" stroke="#B88400" stroke-width="2"/>
<path d="M30.8635 37.8574C27.7899 37.8574 25.2983 34.4638 25.2983 29.939C25.2983 25.4142 27.7899 22.0207 30.8635 22.0207V37.8574Z" fill="#FFD361"/>
<path d="M33.0896 29.939C33.0896 35.5617 33.6461 38.9886 31.9765 38.9886C30.307 38.9886 30.307 35.5617 30.307 29.939C30.307 24.3163 30.307 20.8895 31.9765 20.8895C33.6461 20.8895 33.0896 24.3163 33.0896 29.939Z" fill="#F7C441"/>
<path d="M42.1197 37.8574C45.1238 37.8574 47.5591 34.4638 47.5591 29.939C47.5591 25.4142 45.1238 22.0207 42.1197 22.0207V37.8574Z" fill="#FFD361"/>
<path d="M39.9439 29.939C39.9439 35.5617 39.4 38.9886 41.0318 38.9886C42.6636 38.9886 42.6636 35.5617 42.6636 29.939C42.6636 24.3163 42.6636 20.8895 41.0318 20.8895C39.4 20.8895 39.9439 24.3163 39.9439 29.939Z" fill="#F7C441"/>
<path d="M45.2641 24.283C45.3096 23.9125 45.333 23.5349 45.333 23.1518C45.333 18.1539 41.3464 14.1023 36.4287 14.1023C31.511 14.1023 27.5244 18.1539 27.5244 23.1518C27.5244 23.5349 27.5478 23.9125 27.5933 24.283H29.8428C29.7821 23.9152 29.7505 23.5373 29.7505 23.1518C29.7505 19.4034 32.7404 16.3647 36.4287 16.3647C40.117 16.3647 43.1069 19.4034 43.1069 23.1518C43.1069 23.5373 43.0753 23.9152 43.0146 24.283H45.2641Z" fill="url(#paint0_linear_68_127)"/>
<defs>
<linearGradient id="paint0_linear_68_127" x1="36.4287" y1="14.1023" x2="36.4287" y2="24.283" gradientUnits="userSpaceOnUse">
<stop offset="0.213542" stop-color="#F7C441"/>
<stop offset="1" stop-color="#FFD361"/>
</linearGradient>
</defs>
</svg>
