<svg width="276" height="24" viewBox="0 0 276 24" fill="none" xmlns="http://www.w3.org/2000/svg">
<path d="M0.971878 17.2656C0.971878 16.651 1.15417 16.2135 1.51875 15.9531C1.88334 15.6823 2.2375 15.5469 2.58125 15.5469H4.44063C5.37813 15.5469 6.09167 16.0573 6.58125 17.0781C7.07084 18.099 8.16979 18.6094 9.87813 18.6094L15.3469 18.7188C17.1802 18.7188 18.0969 18.1198 18.0969 16.9219C18.0969 16.0156 16.9771 15.3021 14.7375 14.7812C13.7375 14.5417 12.6333 14.3073 11.425 14.0781C10.2167 13.8385 9.01354 13.5417 7.81563 13.1875C6.62813 12.8333 5.53438 12.4167 4.53438 11.9375C3.53438 11.4583 2.72188 10.8021 2.09688 9.96875C1.48229 9.125 1.175 8.13542 1.175 7C1.175 4.90625 1.91979 3.29688 3.40938 2.17188C4.89896 1.03646 7.46146 0.46875 11.0969 0.46875L15.0656 0.5625C17.201 0.5625 19.1229 1.11458 20.8313 2.21875C22.55 3.3125 23.4094 4.68229 23.4094 6.32812C23.4094 6.94271 23.2271 7.38542 22.8625 7.65625C22.4979 7.92708 22.149 8.0625 21.8156 8.0625H19.9563C19.0188 8.0625 18.3052 7.55208 17.8156 6.53125C17.326 5.5 16.2271 4.98438 14.5188 4.98438L9.81563 4.89062C7.98229 4.89062 7.06563 5.48958 7.06563 6.6875C7.06563 7.34375 7.64375 7.88021 8.8 8.29688C9.96667 8.71354 11.3729 9.08333 13.0188 9.40625C14.675 9.71875 16.3365 10.099 18.0031 10.5469C19.6698 10.9948 21.0813 11.7344 22.2375 12.7656C23.4042 13.7865 23.9875 15.0625 23.9875 16.5938C23.9875 18.6875 23.2375 20.3021 21.7375 21.4375C20.2479 22.5625 17.6906 23.125 14.0656 23.125L9.33125 23.0312C7.19584 23.0312 5.26875 22.4844 3.55 21.3906C1.83125 20.2865 0.971878 18.9115 0.971878 17.2656ZM28.7906 21.5V2.10938C28.7906 1.68229 28.9313 1.32292 29.2125 1.03125C29.4938 0.739583 29.8375 0.59375 30.2438 0.59375H36.6031C37.0094 0.59375 37.3948 0.739583 37.7594 1.03125C38.124 1.32292 38.3688 1.67188 38.4938 2.07812L43.1031 15.4219L47.7125 2.07812C47.8375 1.67188 48.0823 1.32292 48.4469 1.03125C48.8115 0.739583 49.1969 0.59375 49.6031 0.59375H55.9625C56.3688 0.59375 56.7073 0.739583 56.9781 1.03125C57.2594 1.32292 57.4 1.68229 57.4 2.10938V21.5C57.4 21.9271 57.2542 22.2865 56.9625 22.5781C56.6813 22.8594 56.3375 23 55.9313 23H53.1188C52.7125 23 52.3635 22.8594 52.0719 22.5781C51.7906 22.2865 51.65 21.9271 51.65 21.5V6.23438L46.1344 21.5938C45.9885 21.9792 45.7333 22.3125 45.3688 22.5938C45.0042 22.8646 44.6188 23 44.2125 23H41.9781C41.5719 23 41.1865 22.8646 40.8219 22.5938C40.4677 22.3125 40.2125 21.9792 40.0563 21.5938L34.5563 6.23438V21.5C34.5563 21.9271 34.4104 22.2865 34.1188 22.5781C33.8375 22.8594 33.4938 23 33.0875 23H30.275C29.8688 23 29.5198 22.8594 29.2281 22.5781C28.9365 22.2865 28.7906 21.9271 28.7906 21.5ZM84.1563 20.6875C82.0313 22.5521 78.9063 23.4844 74.7813 23.4844C70.6667 23.4844 67.5417 22.5521 65.4063 20.6875C63.2708 18.8125 62.2031 15.849 62.2031 11.7969C62.2031 7.74479 63.2708 4.78646 65.4063 2.92188C67.5417 1.05729 70.6667 0.125 74.7813 0.125C78.9063 0.125 82.0313 1.05729 84.1563 2.92188C86.2917 4.78646 87.3594 7.74479 87.3594 11.7969C87.3594 15.849 86.2917 18.8125 84.1563 20.6875ZM79.8906 6.21875C78.8385 4.96875 77.1354 4.34375 74.7813 4.34375C72.4375 4.34375 70.7344 4.96875 69.6719 6.21875C68.6198 7.46875 68.0938 9.33333 68.0938 11.8125C68.0938 14.2812 68.6198 16.1406 69.6719 17.3906C70.7344 18.6302 72.4375 19.25 74.7813 19.25C77.1354 19.25 78.8385 18.6302 79.8906 17.3906C80.9427 16.1406 81.4688 14.2812 81.4688 11.8125C81.4688 9.33333 80.9427 7.46875 79.8906 6.21875ZM92.1781 21.5625V2.10938C92.1781 1.68229 92.324 1.32292 92.6156 1.03125C92.9073 0.739583 93.2563 0.59375 93.6625 0.59375H96.6C97.0063 0.59375 97.35 0.739583 97.6313 1.03125C97.9229 1.32292 98.0688 1.68229 98.0688 2.10938V18.5781H111.678C112.084 18.5781 112.428 18.724 112.709 19.0156C113.001 19.3073 113.147 19.6562 113.147 20.0625V21.5312C113.147 21.9375 113.001 22.2865 112.709 22.5781C112.428 22.8594 112.084 23 111.678 23H93.6625C93.2563 23 92.9073 22.8646 92.6156 22.5938C92.324 22.3125 92.1781 21.9688 92.1781 21.5625ZM117.309 21.5V2.04688C117.309 1.64062 117.455 1.29688 117.747 1.01562C118.039 0.734375 118.388 0.59375 118.794 0.59375H136.809C137.216 0.59375 137.559 0.739583 137.841 1.03125C138.132 1.32292 138.278 1.67188 138.278 2.07812V3.54688C138.278 3.95312 138.132 4.30208 137.841 4.59375C137.559 4.875 137.216 5.01562 136.809 5.01562H123.2V9.5625H134.919C135.325 9.5625 135.669 9.70833 135.95 10C136.242 10.2812 136.388 10.625 136.388 11.0312V12.5C136.388 12.9062 136.242 13.2552 135.95 13.5469C135.669 13.8281 135.325 13.9688 134.919 13.9688H123.2V18.5781H136.778C137.174 18.5781 137.513 18.7188 137.794 19C138.075 19.2812 138.216 19.625 138.216 20.0312V21.5312C138.216 21.9375 138.07 22.2865 137.778 22.5781C137.486 22.8594 137.138 23 136.731 23H118.794C118.388 23 118.039 22.8594 117.747 22.5781C117.455 22.2865 117.309 21.9271 117.309 21.5ZM144.363 20.3594C142.435 18.5156 141.472 15.6667 141.472 11.8125C141.472 7.94792 142.435 5.09375 144.363 3.25C146.3 1.39583 149.201 0.46875 153.066 0.46875H156.55C158.915 0.46875 161.003 1.08333 162.816 2.3125C164.639 3.54167 165.55 5.22396 165.55 7.35938C165.55 7.97396 165.368 8.41667 165.003 8.6875C164.639 8.94792 164.284 9.07812 163.941 9.07812H162.081C161.123 9.07812 160.378 8.50521 159.847 7.35938C159.076 5.71354 157.795 4.89062 156.003 4.89062H153.222C150.941 4.89062 149.394 5.38021 148.581 6.35938C147.769 7.33854 147.363 9.15104 147.363 11.7969C147.363 14.4427 147.769 16.2604 148.581 17.25C149.394 18.2292 150.941 18.7188 153.222 18.7188H156.331C158.123 18.7188 159.399 17.8958 160.159 16.25C160.691 15.0938 161.441 14.5156 162.409 14.5156H164.269C164.758 14.5156 165.144 14.6979 165.425 15.0625C165.717 15.4271 165.863 15.8229 165.863 16.25C165.863 18.3854 164.956 20.0677 163.144 21.2969C161.331 22.5156 159.243 23.125 156.878 23.125H153.066C149.201 23.125 146.3 22.2031 144.363 20.3594ZM170.509 21.5312V2.07812C170.509 1.67188 170.655 1.32292 170.947 1.03125C171.239 0.739583 171.598 0.59375 172.025 0.59375H174.931C175.338 0.59375 175.681 0.739583 175.963 1.03125C176.254 1.32292 176.4 1.67188 176.4 2.07812V9.10938H187.15V2.07812C187.15 1.67188 187.296 1.32292 187.588 1.03125C187.879 0.739583 188.228 0.59375 188.634 0.59375H191.541C191.968 0.59375 192.322 0.739583 192.603 1.03125C192.895 1.32292 193.041 1.67188 193.041 2.07812V21.5312C193.041 21.9375 192.89 22.2865 192.588 22.5781C192.296 22.8594 191.947 23 191.541 23H188.634C188.228 23 187.879 22.8646 187.588 22.5938C187.296 22.3125 187.15 21.9688 187.15 21.5625V13.5312H176.4V21.5625C176.4 21.9688 176.254 22.3125 175.963 22.5938C175.681 22.8646 175.338 23 174.931 23H172.025C171.619 23 171.265 22.8594 170.963 22.5781C170.66 22.2865 170.509 21.9375 170.509 21.5312ZM219.812 20.6875C217.688 22.5521 214.562 23.4844 210.438 23.4844C206.323 23.4844 203.198 22.5521 201.062 20.6875C198.927 18.8125 197.859 15.849 197.859 11.7969C197.859 7.74479 198.927 4.78646 201.062 2.92188C203.198 1.05729 206.323 0.125 210.438 0.125C214.562 0.125 217.688 1.05729 219.812 2.92188C221.948 4.78646 223.016 7.74479 223.016 11.7969C223.016 15.849 221.948 18.8125 219.812 20.6875ZM215.547 6.21875C214.495 4.96875 212.792 4.34375 210.438 4.34375C208.094 4.34375 206.391 4.96875 205.328 6.21875C204.276 7.46875 203.75 9.33333 203.75 11.8125C203.75 14.2812 204.276 16.1406 205.328 17.3906C206.391 18.6302 208.094 19.25 210.438 19.25C212.792 19.25 214.495 18.6302 215.547 17.3906C216.599 16.1406 217.125 14.2812 217.125 11.8125C217.125 9.33333 216.599 7.46875 215.547 6.21875ZM227.834 21.5V2.04688C227.834 1.64062 227.98 1.29688 228.272 1.01562C228.564 0.734375 228.913 0.59375 229.319 0.59375H247.334C247.741 0.59375 248.084 0.739583 248.366 1.03125C248.657 1.32292 248.803 1.67188 248.803 2.07812V3.54688C248.803 3.95312 248.657 4.30208 248.366 4.59375C248.084 4.875 247.741 5.01562 247.334 5.01562H233.725V9.5625H245.444C245.85 9.5625 246.194 9.70833 246.475 10C246.767 10.2812 246.913 10.625 246.913 11.0312V12.5C246.913 12.9062 246.767 13.2552 246.475 13.5469C246.194 13.8281 245.85 13.9688 245.444 13.9688H233.725V18.5781H247.303C247.699 18.5781 248.038 18.7188 248.319 19C248.6 19.2812 248.741 19.625 248.741 20.0312V21.5312C248.741 21.9375 248.595 22.2865 248.303 22.5781C248.011 22.8594 247.663 23 247.256 23H229.319C228.913 23 228.564 22.8594 228.272 22.5781C227.98 22.2865 227.834 21.9271 227.834 21.5ZM251.997 17.2656C251.997 16.651 252.179 16.2135 252.544 15.9531C252.908 15.6823 253.262 15.5469 253.606 15.5469H255.466C256.403 15.5469 257.117 16.0573 257.606 17.0781C258.096 18.099 259.195 18.6094 260.903 18.6094L266.372 18.7188C268.205 18.7188 269.122 18.1198 269.122 16.9219C269.122 16.0156 268.002 15.3021 265.762 14.7812C264.762 14.5417 263.658 14.3073 262.45 14.0781C261.242 13.8385 260.039 13.5417 258.841 13.1875C257.653 12.8333 256.559 12.4167 255.559 11.9375C254.559 11.4583 253.747 10.8021 253.122 9.96875C252.507 9.125 252.2 8.13542 252.2 7C252.2 4.90625 252.945 3.29688 254.434 2.17188C255.924 1.03646 258.486 0.46875 262.122 0.46875L266.091 0.5625C268.226 0.5625 270.148 1.11458 271.856 2.21875C273.575 3.3125 274.434 4.68229 274.434 6.32812C274.434 6.94271 274.252 7.38542 273.887 7.65625C273.523 7.92708 273.174 8.0625 272.841 8.0625H270.981C270.044 8.0625 269.33 7.55208 268.841 6.53125C268.351 5.5 267.252 4.98438 265.544 4.98438L260.841 4.89062C259.007 4.89062 258.091 5.48958 258.091 6.6875C258.091 7.34375 258.669 7.88021 259.825 8.29688C260.992 8.71354 262.398 9.08333 264.044 9.40625C265.7 9.71875 267.361 10.099 269.028 10.5469C270.695 10.9948 272.106 11.7344 273.262 12.7656C274.429 13.7865 275.012 15.0625 275.012 16.5938C275.012 18.6875 274.262 20.3021 272.762 21.4375C271.273 22.5625 268.716 23.125 265.091 23.125L260.356 23.0312C258.221 23.0312 256.294 22.4844 254.575 21.3906C252.856 20.2865 251.997 18.9115 251.997 17.2656Z" fill="#FFD361"/>
<path d="M1.51875 15.9531L2.68123 17.5806L2.69642 17.5697L2.7114 17.5586L1.51875 15.9531ZM9.87813 18.6094L9.91812 16.6098L9.89813 16.6094H9.87813V18.6094ZM15.3469 18.7188L15.3069 20.7184L15.3269 20.7188H15.3469V18.7188ZM14.7375 14.7812L14.2715 16.7263L14.2845 16.7293L14.7375 14.7812ZM11.425 14.0781L11.036 16.0399L11.0442 16.0415L11.0523 16.0431L11.425 14.0781ZM7.81563 13.1875L7.24402 15.1041L7.24859 15.1054L7.81563 13.1875ZM2.09688 9.96875L0.480269 11.1463L0.488495 11.1576L0.496878 11.1687L2.09688 9.96875ZM3.40938 2.17188L4.61474 3.76786L4.6218 3.76248L3.40938 2.17188ZM11.0969 0.46875L11.1441 -1.53069L11.1205 -1.53125H11.0969V0.46875ZM15.0656 0.5625L15.0184 2.56194L15.042 2.5625H15.0656V0.5625ZM20.8313 2.21875L19.7456 3.89848L19.7575 3.90607L20.8313 2.21875ZM17.8156 6.53125L16.0089 7.389L16.0123 7.39611L17.8156 6.53125ZM14.5188 4.98438L14.4789 6.98398L14.4988 6.98438H14.5188V4.98438ZM9.81563 4.89062L9.85549 2.89102L9.83556 2.89062H9.81563V4.89062ZM8.8 8.29688L8.12196 10.1784L8.12733 10.1804L8.8 8.29688ZM13.0188 9.40625L12.6337 11.3688L12.6408 11.3702L12.6479 11.3716L13.0188 9.40625ZM22.2375 12.7656L20.9063 14.2582L20.9134 14.2645L20.9205 14.2708L22.2375 12.7656ZM21.7375 21.4375L22.9429 23.0335L22.9446 23.0322L21.7375 21.4375ZM14.0656 23.125L14.026 25.1246L14.0458 25.125H14.0656V23.125ZM9.33125 23.0312L9.37085 21.0316L9.35105 21.0312H9.33125V23.0312ZM3.55 21.3906L2.46899 23.0733L2.47625 23.0779L3.55 21.3906ZM2.97188 17.2656C2.97188 17.1476 2.99043 17.1602 2.95475 17.2458C2.93579 17.2913 2.90393 17.3512 2.85376 17.4152C2.8031 17.4799 2.74377 17.5359 2.68123 17.5806L0.356277 14.3257C-0.714748 15.0907 -1.02812 16.2651 -1.02812 17.2656H2.97188ZM2.7114 17.5586C2.77497 17.5114 2.79547 17.5076 2.77209 17.5165C2.74461 17.527 2.67746 17.5469 2.58125 17.5469V13.5469C1.68834 13.5469 0.925313 13.9025 0.326105 14.3476L2.7114 17.5586ZM2.58125 17.5469H4.44063V13.5469H2.58125V17.5469ZM4.44063 17.5469C4.46693 17.5469 4.48468 17.5487 4.49517 17.5502C4.50549 17.5517 4.51032 17.5531 4.51105 17.5534C4.51169 17.5536 4.51099 17.5533 4.51004 17.5529C4.50913 17.5524 4.51076 17.5531 4.51531 17.5564C4.52982 17.5667 4.6376 17.6504 4.77792 17.943L8.38459 16.2133C8.03532 15.485 7.54154 14.8031 6.84251 14.303C6.12248 13.788 5.2964 13.5469 4.44063 13.5469V17.5469ZM4.77792 17.943C5.75537 19.9811 7.83977 20.6094 9.87813 20.6094V16.6094C9.20374 16.6094 8.81559 16.5058 8.61513 16.4127C8.45449 16.338 8.41416 16.2749 8.38459 16.2133L4.77792 17.943ZM9.83814 20.609L15.3069 20.7184L15.3869 16.7191L9.91812 16.6098L9.83814 20.609ZM15.3469 20.7188C16.4176 20.7188 17.5673 20.5554 18.5034 19.9438C19.5872 19.2356 20.0969 18.1208 20.0969 16.9219H16.0969C16.0969 16.9644 16.0898 16.9042 16.1434 16.7992C16.2008 16.6867 16.2783 16.6195 16.3154 16.5953C16.339 16.5798 16.2948 16.6151 16.1244 16.6523C15.9551 16.6891 15.7026 16.7188 15.3469 16.7188V20.7188ZM20.0969 16.9219C20.0969 15.5017 19.1791 14.5602 18.3318 14.0204C17.4905 13.4843 16.3941 13.1131 15.1905 12.8332L14.2845 16.7293C15.3205 16.9702 15.9038 17.2163 16.1823 17.3937C16.4548 17.5674 16.0969 17.4358 16.0969 16.9219H20.0969ZM15.2035 12.8363C14.1673 12.588 13.0314 12.3471 11.7977 12.1132L11.0523 16.0431C12.2352 16.2674 13.3077 16.4953 14.2715 16.7262L15.2035 12.8363ZM11.814 12.1163C10.6665 11.8888 9.52276 11.6066 8.38267 11.2696L7.24859 15.1054C8.50433 15.4767 9.76686 15.7883 11.036 16.0399L11.814 12.1163ZM8.38724 11.2709C7.28859 10.9433 6.29394 10.5629 5.39862 10.1339L3.67014 13.7411C4.77481 14.2705 5.96767 14.7234 7.24402 15.1041L8.38724 11.2709ZM5.39862 10.1339C4.66962 9.78456 4.11635 9.32805 3.69688 8.76875L0.496878 11.1687C1.3274 12.2761 2.39914 13.1321 3.67014 13.7411L5.39862 10.1339ZM3.71349 8.79122C3.37017 8.31989 3.175 7.7514 3.175 7H-0.824997C-0.824997 8.51944 -0.405583 9.93011 0.480269 11.1463L3.71349 8.79122ZM3.175 7C3.175 5.44596 3.6915 4.46511 4.61473 3.76785L2.20403 0.575902C0.14809 2.12864 -0.824997 4.36654 -0.824997 7H3.175ZM4.6218 3.76248C5.5609 3.04667 7.54898 2.46875 11.0969 2.46875V-1.53125C7.37394 -1.53125 4.23702 -0.973749 2.19696 0.581267L4.6218 3.76248ZM11.0496 2.46819L15.0184 2.56194L15.1129 -1.43694L11.1441 -1.53069L11.0496 2.46819ZM15.0656 2.5625C16.836 2.5625 18.3773 3.01405 19.7456 3.89844L21.9169 0.53906C19.8685 -0.784879 17.566 -1.4375 15.0656 -1.4375V2.5625ZM19.7575 3.90607C21.0568 4.73287 21.4094 5.53385 21.4094 6.32812H25.4094C25.4094 3.83073 24.0432 1.89213 21.905 0.531427L19.7575 3.90607ZM21.4094 6.32812C21.4094 6.44511 21.3911 6.43771 21.4233 6.35959C21.4403 6.31826 21.4691 6.26339 21.5144 6.20428C21.5601 6.14462 21.6136 6.09257 21.6699 6.05076L24.0552 9.26174C25.0945 8.48966 25.4094 7.33397 25.4094 6.32812H21.4094ZM21.6699 6.05076C21.6021 6.1011 21.5799 6.10569 21.6038 6.09641C21.6318 6.08553 21.7062 6.0625 21.8156 6.0625V10.0625C22.71 10.0625 23.4688 9.69734 24.0552 9.26174L21.6699 6.05076ZM21.8156 6.0625H19.9563V10.0625H21.8156V6.0625ZM19.9563 6.0625C19.93 6.0625 19.9122 6.06072 19.9017 6.0592C19.8914 6.05771 19.8866 6.05625 19.8858 6.05602C19.8852 6.05582 19.8859 6.05603 19.8868 6.0565C19.8877 6.05695 19.8861 6.05628 19.8816 6.05302C19.8671 6.04265 19.7593 5.95896 19.619 5.66639L16.0123 7.39611C16.3616 8.12437 16.8553 8.80631 17.5544 9.30635C18.2744 9.82141 19.1005 10.0625 19.9563 10.0625V6.0625ZM19.6224 5.67351C18.6495 3.62429 16.5668 2.98438 14.5188 2.98438V6.98438C15.191 6.98438 15.5764 7.08866 15.7747 7.1817C15.933 7.25596 15.9762 7.32014 16.0089 7.38899L19.6224 5.67351ZM14.5586 2.98477L9.85549 2.89102L9.77577 6.89023L14.4789 6.98398L14.5586 2.98477ZM9.81563 2.89062C8.74491 2.89062 7.59517 3.05396 6.65914 3.66557C5.57528 4.37377 5.06563 5.48856 5.06563 6.6875H9.06563C9.06563 6.645 9.07266 6.70518 9.01907 6.81022C8.9617 6.92267 8.88419 6.98989 8.84711 7.01412C8.82349 7.02955 8.86767 6.99424 9.03813 6.95712C9.2074 6.92025 9.45995 6.89062 9.81563 6.89062V2.89062ZM5.06563 6.6875C5.06563 7.68292 5.53103 8.4841 6.13883 9.04809C6.70407 9.57259 7.41695 9.92438 8.12196 10.1784L9.47804 6.41532C9.26479 6.33847 9.1109 6.26765 9.00445 6.20915C8.89662 6.14989 8.85811 6.11458 8.85962 6.11597C8.86328 6.11938 8.91924 6.17242 8.97375 6.28487C9.03194 6.40493 9.06563 6.54631 9.06563 6.6875H5.06563ZM8.12733 10.1804C9.41395 10.6399 10.9219 11.033 12.6337 11.3688L13.4038 7.44367C11.824 7.1337 10.5194 6.78722 9.47268 6.41339L8.12733 10.1804ZM12.6479 11.3716C14.2532 11.6744 15.8652 12.0433 17.484 12.4783L18.5222 8.61541C16.8077 8.15465 15.0968 7.76305 13.3896 7.44093L12.6479 11.3716ZM17.484 12.4783C18.8842 12.8546 20.0082 13.4573 20.9063 14.2582L23.5687 11.273C22.1543 10.0115 20.4554 9.13495 18.5222 8.61541L17.484 12.4783ZM20.9205 14.2708C21.6593 14.9172 21.9875 15.6474 21.9875 16.5938H25.9875C25.9875 14.4776 25.149 12.6557 23.5545 11.2605L20.9205 14.2708ZM21.9875 16.5938C21.9875 18.1423 21.4696 19.132 20.5304 19.8428L22.9446 23.0322C25.0054 21.4722 25.9875 19.2327 25.9875 16.5938H21.9875ZM20.5322 19.8415C19.591 20.5523 17.6036 21.125 14.0656 21.125V25.125C17.7776 25.125 20.9049 24.5727 22.9429 23.0335L20.5322 19.8415ZM14.1052 21.1254L9.37085 21.0316L9.29166 25.0309L14.026 25.1246L14.1052 21.1254ZM9.33125 21.0312C7.55695 21.0312 6.00574 20.5827 4.62375 19.7033L2.47625 23.0779C4.53177 24.386 6.83472 25.0312 9.33125 25.0312V21.0312ZM4.631 19.7079C3.32691 18.8702 2.97188 18.062 2.97188 17.2656H-1.02812C-1.02812 19.7609 0.335595 21.7028 2.469 23.0733L4.631 19.7079ZM38.4938 2.07812L36.5822 2.6663L36.5922 2.69889L36.6034 2.73113L38.4938 2.07812ZM43.1031 15.4219L41.2127 16.0749L43.1031 21.5474L44.9935 16.0749L43.1031 15.4219ZM47.7125 2.07812L49.6029 2.73113L49.614 2.69889L49.6241 2.6663L47.7125 2.07812ZM56.9781 1.03125L55.5125 2.39215L55.5254 2.40596L55.5384 2.41952L56.9781 1.03125ZM56.9625 22.5781L55.5483 21.1639L56.9625 22.5781ZM52.0719 22.5781L50.6322 23.9664L50.6574 23.9926L50.6836 24.0178L52.0719 22.5781ZM51.65 6.23438H53.65L49.7677 5.55843L51.65 6.23438ZM46.1344 21.5938L48.005 22.3015L48.011 22.2857L48.0167 22.2697L46.1344 21.5938ZM45.3688 22.5938L46.5614 24.1992L46.576 24.1884L46.5904 24.1773L45.3688 22.5938ZM40.8219 22.5938L39.5781 24.16L39.6034 24.18L39.6292 24.1992L40.8219 22.5938ZM40.0563 21.5938L38.1733 22.268L38.1873 22.3069L38.2028 22.3452L40.0563 21.5938ZM34.5563 6.23438L36.4392 5.56012L32.5563 6.23438H34.5563ZM34.1188 22.5781L32.7045 21.1639L34.1188 22.5781ZM29.2281 22.5781L27.8139 23.9923L27.8268 24.0052L27.8399 24.0178L29.2281 22.5781ZM30.7906 21.5V2.10938H26.7906V21.5H30.7906ZM30.7906 2.10938C30.7906 2.11863 30.7884 2.17225 30.7586 2.24833C30.7281 2.32636 30.6853 2.38519 30.6522 2.41952L27.7728 -0.357021C27.1112 0.32911 26.7906 1.19539 26.7906 2.10938H30.7906ZM30.6522 2.41952C30.622 2.45079 30.5587 2.50343 30.4624 2.54429C30.3661 2.5851 30.2852 2.59375 30.2438 2.59375V-1.40625C29.2961 -1.40625 28.4321 -1.04076 27.7728 -0.357021L30.6522 2.41952ZM30.2438 2.59375H36.6031V-1.40625H30.2438V2.59375ZM36.6031 2.59375C36.5843 2.59375 36.5633 2.59199 36.5416 2.588C36.52 2.58402 36.5021 2.57862 36.4891 2.5737C36.4622 2.56351 36.4696 2.56067 36.51 2.59299L39.0088 -0.530488C38.3452 -1.06136 37.53 -1.40625 36.6031 -1.40625V2.59375ZM36.51 2.59299C36.558 2.63142 36.5756 2.65528 36.5791 2.66028C36.5817 2.66396 36.5814 2.66374 36.5822 2.6663L40.4053 1.48995C40.1507 0.66246 39.6545 -0.0138697 39.0088 -0.530488L36.51 2.59299ZM36.6034 2.73113L41.2127 16.0749L44.9935 14.7689L40.3841 1.42512L36.6034 2.73113ZM44.9935 16.0749L49.6029 2.73113L45.8221 1.42512L41.2127 14.7689L44.9935 16.0749ZM49.6241 2.6663C49.6248 2.66374 49.6246 2.66396 49.6272 2.66028C49.6307 2.65528 49.6482 2.63142 49.6963 2.59299L47.1975 -0.530488C46.5517 -0.0138697 46.0556 0.66246 45.8009 1.48995L49.6241 2.6663ZM49.6963 2.59299C49.7367 2.56067 49.7441 2.56351 49.7172 2.5737C49.7042 2.57862 49.6863 2.58402 49.6647 2.588C49.643 2.59199 49.622 2.59375 49.6031 2.59375V-1.40625C48.6763 -1.40625 47.8611 -1.06136 47.1975 -0.530488L49.6963 2.59299ZM49.6031 2.59375H55.9625V-1.40625H49.6031V2.59375ZM55.9625 2.59375C55.9215 2.59375 55.8349 2.58521 55.7298 2.53995C55.6238 2.49428 55.5511 2.43366 55.5125 2.39215L58.4437 -0.329652C57.7857 -1.03832 56.9118 -1.40625 55.9625 -1.40625V2.59375ZM55.5384 2.41952C55.5053 2.38519 55.4626 2.32636 55.432 2.24833C55.4023 2.17225 55.4 2.11863 55.4 2.10938H59.4C59.4 1.19539 59.0794 0.32911 58.4178 -0.357021L55.5384 2.41952ZM55.4 2.10938V21.5H59.4V2.10938H55.4ZM55.4 21.5C55.4 21.4819 55.404 21.4201 55.4374 21.3378C55.4714 21.2541 55.5172 21.195 55.5483 21.1639L58.3767 23.9923C59.058 23.311 59.4 22.4365 59.4 21.5H55.4ZM55.5483 21.1639C55.582 21.1302 55.6455 21.0807 55.7365 21.0434C55.8266 21.0066 55.8992 21 55.9313 21V25C56.8552 25 57.7115 24.6576 58.3767 23.9923L55.5483 21.1639ZM55.9313 21H53.1188V25H55.9313V21ZM53.1188 21C53.1512 21 53.2184 21.0066 53.2999 21.0395C53.3815 21.0724 53.4354 21.1146 53.4601 21.1384L50.6836 24.0178C51.3491 24.6596 52.1962 25 53.1188 25V21ZM53.5116 21.1899C53.5447 21.2242 53.5874 21.283 53.618 21.361C53.6477 21.4371 53.65 21.4907 53.65 21.5H49.65C49.65 22.414 49.9706 23.2803 50.6322 23.9664L53.5116 21.1899ZM53.65 21.5V6.23438H49.65V21.5H53.65ZM49.7677 5.55843L44.2521 20.9178L48.0167 22.2697L53.5323 6.91032L49.7677 5.55843ZM44.2638 20.886C44.2611 20.893 44.257 20.9021 44.2456 20.917C44.2333 20.9331 44.205 20.9655 44.1471 21.0102L46.5904 24.1773C47.2128 23.6972 47.7131 23.0729 48.005 22.3015L44.2638 20.886ZM44.1761 20.9883C44.1564 21.0029 44.1438 21.0102 44.1388 21.0129C44.134 21.0155 44.1356 21.0142 44.1433 21.0115C44.1511 21.0088 44.1624 21.0056 44.1761 21.0032C44.1898 21.0009 44.2024 21 44.2125 21V25C45.0987 25 45.8946 24.6945 46.5614 24.1992L44.1761 20.9883ZM44.2125 21H41.9781V25H44.2125V21ZM41.9781 21C41.9883 21 42.0008 21.0009 42.0146 21.0032C42.0283 21.0056 42.0395 21.0088 42.0474 21.0115C42.055 21.0142 42.0566 21.0155 42.0518 21.0129C42.0468 21.0102 42.0343 21.0029 42.0145 20.9883L39.6292 24.1992C40.296 24.6945 41.092 25 41.9781 25V21ZM42.0656 21.0275C41.9573 20.9415 41.9252 20.8806 41.9097 20.8423L38.2028 22.3452C38.4998 23.0778 38.9781 23.6835 39.5781 24.16L42.0656 21.0275ZM41.9392 20.9195L36.4392 5.56012L32.6733 6.90863L38.1733 22.268L41.9392 20.9195ZM32.5563 6.23438V21.5H36.5563V6.23438H32.5563ZM32.5563 21.5C32.5563 21.4819 32.5603 21.4201 32.5937 21.3378C32.6276 21.2541 32.6734 21.195 32.7045 21.1639L35.533 23.9923C36.2143 23.311 36.5563 22.4365 36.5563 21.5H32.5563ZM32.7045 21.1639C32.7382 21.1302 32.8017 21.0807 32.8927 21.0434C32.9829 21.0066 33.0554 21 33.0875 21V25C34.0115 25 34.8678 24.6576 35.533 23.9923L32.7045 21.1639ZM33.0875 21H30.275V25H33.0875V21ZM30.275 21C30.3074 21 30.3746 21.0066 30.4561 21.0395C30.5378 21.0724 30.5917 21.1146 30.6164 21.1384L27.8399 24.0178C28.5054 24.6596 29.3524 25 30.275 25V21ZM30.6423 21.1639C30.6735 21.195 30.7193 21.2541 30.7532 21.3378C30.7866 21.4201 30.7906 21.4819 30.7906 21.5H26.7906C26.7906 22.4365 27.1326 23.311 27.8139 23.9923L30.6423 21.1639ZM84.1563 20.6875L85.4753 22.1908L85.4759 22.1904L84.1563 20.6875ZM65.4063 20.6875L64.0866 22.1904L64.0908 22.194L65.4063 20.6875ZM84.1563 2.92188L82.8372 4.42521L82.8408 4.42839L84.1563 2.92188ZM69.6719 6.21875L68.148 4.92344L68.1417 4.93087L69.6719 6.21875ZM69.6719 17.3906L68.1417 18.6785L68.1475 18.6854L68.1534 18.6922L69.6719 17.3906ZM79.8906 17.3906L81.4155 18.6848L81.4208 18.6785L79.8906 17.3906ZM82.8372 19.1842C81.2132 20.6091 78.6393 21.4844 74.7813 21.4844V25.4844C79.1732 25.4844 82.8493 24.4951 85.4753 22.1908L82.8372 19.1842ZM74.7813 21.4844C70.9361 21.4844 68.3585 20.6102 66.7217 19.181L64.0908 22.194C66.7249 24.494 70.3973 25.4844 74.7813 25.4844V21.4844ZM66.7259 19.1846C65.1819 17.829 64.2031 15.5257 64.2031 11.7969H60.2031C60.2031 16.1722 61.3598 19.796 64.0867 22.1904L66.7259 19.1846ZM64.2031 11.7969C64.2031 8.06708 65.1823 5.77256 66.7217 4.42839L64.0908 1.41536C61.3594 3.80035 60.2031 7.4225 60.2031 11.7969H64.2031ZM66.7217 4.42839C68.3585 2.9992 70.9361 2.125 74.7813 2.125V-1.875C70.3973 -1.875 66.7249 -0.884614 64.0908 1.41536L66.7217 4.42839ZM74.7813 2.125C78.6393 2.125 81.2132 3.00026 82.8372 4.4252L85.4753 1.41855C82.8493 -0.885678 79.1732 -1.875 74.7813 -1.875V2.125ZM82.8408 4.42839C84.3802 5.77256 85.3594 8.06708 85.3594 11.7969H89.3594C89.3594 7.4225 88.2031 3.80035 85.4717 1.41536L82.8408 4.42839ZM85.3594 11.7969C85.3594 15.5257 84.3806 17.829 82.8367 19.1846L85.4759 22.1904C88.2028 19.796 89.3594 16.1722 89.3594 11.7969H85.3594ZM81.4208 4.93087C79.8443 3.05786 77.457 2.34375 74.7813 2.34375V6.34375C76.8139 6.34375 77.8328 6.87964 78.3605 7.50663L81.4208 4.93087ZM74.7813 2.34375C72.1108 2.34375 69.7316 3.06034 68.148 4.92345L71.1958 7.51405C71.7371 6.87716 72.7642 6.34375 74.7813 6.34375V2.34375ZM68.1417 4.93087C66.6635 6.68713 66.0938 9.09612 66.0938 11.8125H70.0938C70.0938 9.57054 70.576 8.25037 71.202 7.50663L68.1417 4.93087ZM66.0938 11.8125C66.0938 14.521 66.6646 16.9235 68.1417 18.6785L71.202 16.1027C70.575 15.3577 70.0938 14.0415 70.0938 11.8125H66.0938ZM68.1534 18.6922C69.7384 20.5415 72.1158 21.25 74.7813 21.25V17.25C72.7593 17.25 71.7303 16.719 71.1904 16.089L68.1534 18.6922ZM74.7813 21.25C77.452 21.25 79.8375 20.5439 81.4155 18.6848L78.3658 16.0964C77.8395 16.7165 76.8188 17.25 74.7813 17.25V21.25ZM81.4208 18.6785C82.8979 16.9235 83.4688 14.521 83.4688 11.8125H79.4688C79.4688 14.0415 78.9875 15.3577 78.3605 16.1027L81.4208 18.6785ZM83.4688 11.8125C83.4688 9.09612 82.899 6.68713 81.4208 4.93087L78.3605 7.50663C78.9865 8.25037 79.4688 9.57054 79.4688 11.8125H83.4688ZM97.6313 1.03125L96.1916 2.41952L96.2042 2.43261L96.217 2.44546L97.6313 1.03125ZM98.0688 18.5781H96.0688V20.5781H98.0688V18.5781ZM112.709 19.0156L111.27 20.4039L111.282 20.417L111.295 20.4298L112.709 19.0156ZM112.709 22.5781L111.295 21.1639L112.709 22.5781ZM92.6156 22.5938L91.2274 24.0334L91.2409 24.0465L91.2547 24.0593L92.6156 22.5938ZM94.1781 21.5625V2.10938H90.1781V21.5625H94.1781ZM94.1781 2.10938C94.1781 2.12748 94.1741 2.18928 94.1407 2.27156C94.1068 2.35523 94.061 2.41434 94.0298 2.44546L91.2014 -0.382964C90.5201 0.298354 90.1781 1.17284 90.1781 2.10938H94.1781ZM94.0298 2.44546C94.0083 2.46706 93.9542 2.51216 93.8673 2.54846C93.7798 2.58502 93.7043 2.59375 93.6625 2.59375V-1.40625C92.7168 -1.40625 91.8617 -1.04325 91.2014 -0.382964L94.0298 2.44546ZM93.6625 2.59375H96.6V-1.40625H93.6625V2.59375ZM96.6 2.59375C96.5585 2.59375 96.4776 2.5851 96.3814 2.54429C96.2851 2.50343 96.2217 2.45079 96.1916 2.41952L99.0709 -0.357021C98.4116 -1.04076 97.5477 -1.40625 96.6 -1.40625V2.59375ZM96.217 2.44546C96.1859 2.41434 96.1401 2.35523 96.1062 2.27156C96.0728 2.18928 96.0688 2.12748 96.0688 2.10938H100.069C100.069 1.17284 99.7268 0.298354 99.0455 -0.382964L96.217 2.44546ZM96.0688 2.10938V18.5781H100.069V2.10938H96.0688ZM98.0688 20.5781H111.678V16.5781H98.0688V20.5781ZM111.678 20.5781C111.637 20.5781 111.556 20.5695 111.46 20.5287C111.363 20.4878 111.3 20.4352 111.27 20.4039L114.149 17.6274C113.49 16.9436 112.626 16.5781 111.678 16.5781V20.5781ZM111.295 20.4298C111.274 20.4082 111.228 20.3542 111.192 20.2673C111.156 20.1798 111.147 20.1043 111.147 20.0625H115.147C115.147 19.1168 114.784 18.2617 114.124 17.6014L111.295 20.4298ZM111.147 20.0625V21.5312H115.147V20.0625H111.147ZM111.147 21.5312C111.147 21.4895 111.156 21.414 111.192 21.3265C111.228 21.2396 111.274 21.1855 111.295 21.1639L114.124 23.9923C114.784 23.3321 115.147 22.477 115.147 21.5312H111.147ZM111.295 21.1639C111.329 21.1302 111.392 21.0807 111.483 21.0434C111.574 21.0066 111.646 21 111.678 21V25C112.602 25 113.458 24.6576 114.124 23.9923L111.295 21.1639ZM111.678 21H93.6625V25H111.678V21ZM93.6625 21C93.6857 21 93.7444 21.0047 93.8196 21.0339C93.8956 21.0634 93.9489 21.1025 93.9765 21.1282L91.2547 24.0593C91.9247 24.6815 92.763 25 93.6625 25V21ZM94.0039 21.1541C94.0352 21.1842 94.0878 21.2476 94.1287 21.3439C94.1695 21.4401 94.1781 21.521 94.1781 21.5625H90.1781C90.1781 22.5102 90.5436 23.3741 91.2274 24.0334L94.0039 21.1541ZM137.841 1.03125L136.401 2.41952L136.414 2.43261L136.426 2.44546L137.841 1.03125ZM123.2 5.01562V3.01562H121.2V5.01562H123.2ZM123.2 9.5625H121.2V11.5625H123.2V9.5625ZM135.95 10L134.51 11.3883L134.536 11.4144L134.562 11.4397L135.95 10ZM135.95 13.5469L134.536 12.1327L135.95 13.5469ZM123.2 13.9688V11.9688H121.2V13.9688H123.2ZM123.2 18.5781H121.2V20.5781H123.2V18.5781ZM137.778 22.5781L139.166 24.0178L139.179 24.0052L139.192 23.9923L137.778 22.5781ZM117.747 22.5781L116.333 23.9923L116.346 24.0052L116.359 24.0178L117.747 22.5781ZM119.309 21.5V2.04688H115.309V21.5H119.309ZM119.309 2.04688C119.309 2.08833 119.301 2.16927 119.26 2.26547C119.219 2.36179 119.166 2.42516 119.135 2.45531L116.359 -0.424064C115.675 0.235258 115.309 1.09921 115.309 2.04688H119.309ZM119.135 2.45531C119.11 2.47916 119.057 2.52137 118.975 2.55426C118.893 2.5871 118.826 2.59375 118.794 2.59375V-1.40625C117.871 -1.40625 117.024 -1.06583 116.359 -0.424064L119.135 2.45531ZM118.794 2.59375H136.809V-1.40625H118.794V2.59375ZM136.809 2.59375C136.768 2.59375 136.687 2.5851 136.591 2.54429C136.494 2.50343 136.431 2.45079 136.401 2.41952L139.28 -0.357021C138.621 -1.04076 137.757 -1.40625 136.809 -1.40625V2.59375ZM136.426 2.44546C136.405 2.42387 136.36 2.36978 136.323 2.2829C136.287 2.19542 136.278 2.11992 136.278 2.07812H140.278C140.278 1.13238 139.915 0.27732 139.255 -0.382964L136.426 2.44546ZM136.278 2.07812V3.54688H140.278V2.07812H136.278ZM136.278 3.54688C136.278 3.50508 136.287 3.42958 136.323 3.3421C136.36 3.25522 136.405 3.20113 136.426 3.17954L139.255 6.00796C139.915 5.34768 140.278 4.49262 140.278 3.54688H136.278ZM136.426 3.17954C136.46 3.14584 136.524 3.09629 136.615 3.05906C136.705 3.02218 136.777 3.01562 136.809 3.01562V7.01562C137.733 7.01562 138.59 6.67318 139.255 6.00796L136.426 3.17954ZM136.809 3.01562H123.2V7.01562H136.809V3.01562ZM121.2 5.01562V9.5625H125.2V5.01562H121.2ZM123.2 11.5625H134.919V7.5625H123.2V11.5625ZM134.919 11.5625C134.877 11.5625 134.796 11.5539 134.7 11.513C134.604 11.4722 134.54 11.4195 134.51 11.3883L137.39 8.61173C136.73 7.92799 135.866 7.5625 134.919 7.5625V11.5625ZM134.562 11.4397C134.53 11.4095 134.478 11.3462 134.437 11.2498C134.396 11.1536 134.388 11.0727 134.388 11.0312H138.388C138.388 10.0836 138.022 9.21963 137.338 8.56031L134.562 11.4397ZM134.388 11.0312V12.5H138.388V11.0312H134.388ZM134.388 12.5C134.388 12.4582 134.396 12.3827 134.433 12.2952C134.469 12.2083 134.514 12.1543 134.536 12.1327L137.364 14.9611C138.025 14.3008 138.388 13.4457 138.388 12.5H134.388ZM134.536 12.1327C134.569 12.099 134.633 12.0494 134.724 12.0122C134.814 11.9753 134.887 11.9688 134.919 11.9688V15.9688C135.843 15.9688 136.699 15.6263 137.364 14.9611L134.536 12.1327ZM134.919 11.9688H123.2V15.9688H134.919V11.9688ZM121.2 13.9688V18.5781H125.2V13.9688H121.2ZM123.2 20.5781H136.778V16.5781H123.2V20.5781ZM136.778 20.5781C136.734 20.5781 136.654 20.5691 136.562 20.5306C136.469 20.4921 136.408 20.443 136.38 20.4142L139.208 17.5858C138.554 16.9315 137.707 16.5781 136.778 16.5781V20.5781ZM136.38 20.4142C136.346 20.3805 136.296 20.317 136.259 20.226C136.222 20.1359 136.216 20.0633 136.216 20.0312H140.216C140.216 19.1073 139.873 18.251 139.208 17.5858L136.38 20.4142ZM136.216 20.0312V21.5312H140.216V20.0312H136.216ZM136.216 21.5312C136.216 21.4895 136.224 21.414 136.261 21.3265C136.297 21.2396 136.342 21.1855 136.364 21.1639L139.192 23.9923C139.853 23.3321 140.216 22.477 140.216 21.5312H136.216ZM136.39 21.1384C136.415 21.1146 136.469 21.0724 136.55 21.0395C136.632 21.0066 136.699 21 136.731 21V25C137.654 25 138.501 24.6596 139.166 24.0178L136.39 21.1384ZM136.731 21H118.794V25H136.731V21ZM118.794 21C118.826 21 118.893 21.0066 118.975 21.0395C119.057 21.0724 119.11 21.1146 119.135 21.1384L116.359 24.0178C117.024 24.6596 117.871 25 118.794 25V21ZM119.161 21.1639C119.192 21.195 119.238 21.2541 119.272 21.3378C119.305 21.4201 119.309 21.4819 119.309 21.5H115.309C115.309 22.4365 115.651 23.311 116.333 23.9923L119.161 21.1639ZM144.363 20.3594L142.98 21.8045L142.984 21.8082L144.363 20.3594ZM144.363 3.25L145.745 4.69511L145.745 4.69495L144.363 3.25ZM162.816 2.3125L161.693 3.96777L161.697 3.97075L162.816 2.3125ZM165.003 8.6875L166.166 10.315L166.181 10.3041L166.196 10.293L165.003 8.6875ZM159.847 7.35938L161.661 6.51812L161.658 6.51109L159.847 7.35938ZM148.581 17.25L147.035 18.5191L147.042 18.5271L148.581 17.25ZM160.159 16.25L161.975 17.0888L161.977 17.085L160.159 16.25ZM165.425 15.0625L163.841 16.2841L163.852 16.2981L163.863 16.3119L165.425 15.0625ZM163.144 21.2969L164.26 22.9566L164.266 22.9521L163.144 21.2969ZM145.745 18.9143C144.36 17.5891 143.472 15.3662 143.472 11.8125H139.472C139.472 15.9672 140.511 19.4421 142.98 21.8045L145.745 18.9143ZM143.472 11.8125C143.472 8.24651 144.361 6.01936 145.745 4.69511L142.98 1.80489C140.51 4.16814 139.472 7.64933 139.472 11.8125H143.472ZM145.745 4.69495C147.174 3.32775 149.49 2.46875 153.066 2.46875V-1.53125C148.912 -1.53125 145.426 -0.536082 142.98 1.80505L145.745 4.69495ZM153.066 2.46875H156.55V-1.53125H153.066V2.46875ZM156.55 2.46875C158.548 2.46875 160.239 2.98132 161.693 3.96777L163.938 0.657233C161.768 -0.814657 159.281 -1.53125 156.55 -1.53125V2.46875ZM161.697 3.97075C162.989 4.84133 163.55 5.91219 163.55 7.35938H167.55C167.55 4.53573 166.288 2.242 163.934 0.654254L161.697 3.97075ZM163.55 7.35938C163.55 7.47636 163.532 7.46896 163.564 7.39084C163.581 7.34951 163.61 7.29464 163.655 7.23553C163.701 7.17587 163.754 7.12382 163.81 7.08201L166.196 10.293C167.235 9.52091 167.55 8.36522 167.55 7.35938H163.55ZM163.841 7.06003C163.778 7.10509 163.755 7.1102 163.774 7.10331C163.796 7.09509 163.855 7.07812 163.941 7.07812V11.0781C164.812 11.0781 165.564 10.7445 166.166 10.315L163.841 7.06003ZM163.941 7.07812H162.081V11.0781H163.941V7.07812ZM162.081 7.07812C162.044 7.07812 162.034 7.0731 162.04 7.07508C162.047 7.07722 162.042 7.07773 162.023 7.06319C161.979 7.02899 161.836 6.89492 161.661 6.51812L158.032 8.20063C158.767 9.78545 160.087 11.0781 162.081 11.0781V7.07812ZM161.658 6.51109C161.144 5.4135 160.403 4.47672 159.389 3.82501C158.372 3.17215 157.213 2.89062 156.003 2.89062V6.89062C156.585 6.89062 156.962 7.02055 157.227 7.19061C157.494 7.36182 157.779 7.65942 158.036 8.20766L161.658 6.51109ZM156.003 2.89062H153.222V6.89062H156.003V2.89062ZM153.222 2.89062C150.79 2.89062 148.448 3.38785 147.042 5.08223L150.12 7.63652C150.339 7.37256 151.091 6.89062 153.222 6.89062V2.89062ZM147.042 5.08223C145.744 6.64634 145.363 9.1025 145.363 11.7969H149.363C149.363 9.19959 149.793 8.03074 150.12 7.63652L147.042 5.08223ZM145.363 11.7969C145.363 14.4951 145.746 16.9483 147.036 18.5191L150.127 15.9809C149.792 15.5726 149.363 14.3903 149.363 11.7969H145.363ZM147.042 18.5271C148.448 20.2215 150.79 20.7188 153.222 20.7188V16.7188C151.091 16.7188 150.339 16.2368 150.12 15.9729L147.042 18.5271ZM153.222 20.7188H156.331V16.7188H153.222V20.7188ZM156.331 20.7188C157.541 20.7188 158.7 20.4373 159.716 19.7824C160.73 19.1284 161.467 18.1885 161.975 17.0888L158.344 15.4112C158.091 15.9573 157.81 16.2518 157.548 16.4208C157.288 16.5887 156.913 16.7188 156.331 16.7188V20.7188ZM161.977 17.085C162.152 16.7044 162.296 16.5684 162.341 16.5332C162.361 16.5182 162.366 16.518 162.361 16.5197C162.357 16.5211 162.369 16.5156 162.409 16.5156V12.5156C160.404 12.5156 159.077 13.8147 158.342 15.415L161.977 17.085ZM162.409 16.5156H164.269V12.5156H162.409V16.5156ZM164.269 16.5156C164.262 16.5156 164.181 16.5131 164.07 16.4603C163.954 16.4057 163.878 16.3316 163.841 16.2841L167.009 13.8409C166.322 12.9505 165.333 12.5156 164.269 12.5156V16.5156ZM163.863 16.3119C163.877 16.3286 163.882 16.3378 163.883 16.3392C163.884 16.3403 163.88 16.3352 163.876 16.3242C163.872 16.3131 163.868 16.2994 163.866 16.2845C163.863 16.2697 163.863 16.2577 163.863 16.25H167.863C167.863 15.3256 167.534 14.4971 166.987 13.8131L163.863 16.3119ZM163.863 16.25C163.863 17.7023 163.302 18.7732 162.021 19.6416L164.266 22.9521C166.611 21.3622 167.863 19.0686 167.863 16.25H163.863ZM162.028 19.6372C160.573 20.6157 158.88 21.125 156.878 21.125V25.125C159.606 25.125 162.09 24.4156 164.26 22.9566L162.028 19.6372ZM156.878 21.125H153.066V25.125H156.878V21.125ZM153.066 21.125C149.487 21.125 147.17 20.2699 145.741 18.9105L142.984 21.8082C145.43 24.1364 148.915 25.125 153.066 25.125V21.125ZM175.963 1.03125L174.523 2.41952L174.535 2.43261L174.548 2.44546L175.963 1.03125ZM176.4 9.10938H174.4V11.1094H176.4V9.10938ZM187.15 9.10938V11.1094H189.15V9.10938H187.15ZM192.603 1.03125L191.163 2.41952L191.176 2.43261L191.189 2.44546L192.603 1.03125ZM192.588 22.5781L193.976 24.0178L193.977 24.0169L192.588 22.5781ZM187.588 22.5938L186.199 24.0334L186.213 24.0465L186.227 24.0593L187.588 22.5938ZM187.15 13.5312H189.15V11.5312H187.15V13.5312ZM176.4 13.5312V11.5312H174.4V13.5312H176.4ZM175.963 22.5938L177.35 24.0344L177.351 24.0334L175.963 22.5938ZM170.963 22.5781L169.573 24.0169L169.586 24.0295L169.6 24.0419L170.963 22.5781ZM172.509 21.5312V2.07812H168.509V21.5312H172.509ZM172.509 2.07812C172.509 2.11992 172.501 2.19542 172.464 2.2829C172.428 2.36978 172.383 2.42387 172.361 2.44546L169.533 -0.382964C168.872 0.27732 168.509 1.13238 168.509 2.07812H172.509ZM172.361 2.44546C172.33 2.47659 172.271 2.5224 172.187 2.55635C172.105 2.58974 172.043 2.59375 172.025 2.59375V-1.40625C171.088 -1.40625 170.214 -1.06428 169.533 -0.382964L172.361 2.44546ZM172.025 2.59375H174.931V-1.40625H172.025V2.59375ZM174.931 2.59375C174.89 2.59375 174.809 2.5851 174.713 2.54429C174.616 2.50343 174.553 2.45079 174.523 2.41952L177.402 -0.357021C176.743 -1.04076 175.879 -1.40625 174.931 -1.40625V2.59375ZM174.548 2.44546C174.527 2.42387 174.482 2.36978 174.445 2.2829C174.409 2.19542 174.4 2.11992 174.4 2.07812H178.4C178.4 1.13238 178.037 0.27732 177.377 -0.382964L174.548 2.44546ZM174.4 2.07812V9.10938H178.4V2.07812H174.4ZM176.4 11.1094H187.15V7.10938H176.4V11.1094ZM189.15 9.10938V2.07812H185.15V9.10938H189.15ZM189.15 2.07812C189.15 2.11992 189.141 2.19542 189.105 2.2829C189.068 2.36978 189.023 2.42387 189.002 2.44546L186.173 -0.382964C185.513 0.27732 185.15 1.13238 185.15 2.07812H189.15ZM189.002 2.44546C188.98 2.46706 188.926 2.51216 188.839 2.54846C188.752 2.58502 188.676 2.59375 188.634 2.59375V-1.40625C187.689 -1.40625 186.834 -1.04325 186.173 -0.382964L189.002 2.44546ZM188.634 2.59375H191.541V-1.40625H188.634V2.59375ZM191.541 2.59375C191.523 2.59375 191.456 2.58986 191.365 2.55248C191.272 2.51417 191.203 2.46086 191.163 2.41952L194.043 -0.357021C193.362 -1.06261 192.478 -1.40625 191.541 -1.40625V2.59375ZM191.189 2.44546C191.167 2.42387 191.122 2.36978 191.086 2.2829C191.049 2.19542 191.041 2.11992 191.041 2.07812H195.041C195.041 1.13238 194.678 0.27732 194.017 -0.382964L191.189 2.44546ZM191.041 2.07812V21.5312H195.041V2.07812H191.041ZM191.041 21.5312C191.041 21.4801 191.052 21.3964 191.092 21.3032C191.132 21.2115 191.179 21.1576 191.198 21.1393L193.977 24.0169C194.654 23.3626 195.041 22.5003 195.041 21.5312H191.041ZM191.199 21.1384C191.224 21.1146 191.278 21.0724 191.359 21.0395C191.441 21.0066 191.508 21 191.541 21V25C192.463 25 193.31 24.6596 193.976 24.0178L191.199 21.1384ZM191.541 21H188.634V25H191.541V21ZM188.634 21C188.658 21 188.716 21.0047 188.792 21.0339C188.867 21.0634 188.921 21.1025 188.948 21.1282L186.227 24.0593C186.897 24.6815 187.735 25 188.634 25V21ZM188.976 21.1541C189.007 21.1842 189.06 21.2476 189.101 21.3439C189.141 21.4401 189.15 21.521 189.15 21.5625H185.15C185.15 22.5102 185.515 23.3741 186.199 24.0334L188.976 21.1541ZM189.15 21.5625V13.5312H185.15V21.5625H189.15ZM187.15 11.5312H176.4V15.5312H187.15V11.5312ZM174.4 13.5312V21.5625H178.4V13.5312H174.4ZM174.4 21.5625C174.4 21.521 174.409 21.4401 174.449 21.3439C174.49 21.2476 174.543 21.1842 174.574 21.1541L177.351 24.0334C178.035 23.3741 178.4 22.5102 178.4 21.5625H174.4ZM174.575 21.1531C174.612 21.1175 174.675 21.0712 174.761 21.0376C174.844 21.0046 174.908 21 174.931 21V25C175.832 25 176.679 24.6799 177.35 24.0344L174.575 21.1531ZM174.931 21H172.025V25H174.931V21ZM172.025 21C172.058 21 172.12 21.0067 172.193 21.0357C172.265 21.0645 172.31 21.0998 172.325 21.1143L169.6 24.0419C170.265 24.6617 171.104 25 172.025 25V21ZM172.352 21.1393C172.371 21.1576 172.418 21.2115 172.458 21.3032C172.498 21.3964 172.509 21.4801 172.509 21.5312H168.509C168.509 22.5003 168.896 23.3626 169.573 24.0169L172.352 21.1393ZM219.812 20.6875L221.132 22.1908L221.132 22.1904L219.812 20.6875ZM201.062 20.6875L199.743 22.1904L199.747 22.194L201.062 20.6875ZM219.812 2.92188L218.493 4.42521L218.497 4.42839L219.812 2.92188ZM205.328 6.21875L203.804 4.92344L203.798 4.93087L205.328 6.21875ZM205.328 17.3906L203.798 18.6785L203.804 18.6854L203.81 18.6922L205.328 17.3906ZM215.547 17.3906L217.072 18.6848L217.077 18.6785L215.547 17.3906ZM218.493 19.1842C216.869 20.6091 214.296 21.4844 210.438 21.4844V25.4844C214.829 25.4844 218.506 24.4951 221.132 22.1908L218.493 19.1842ZM210.438 21.4844C206.592 21.4844 204.015 20.6102 202.378 19.181L199.747 22.194C202.381 24.494 206.054 25.4844 210.438 25.4844V21.4844ZM202.382 19.1846C200.838 17.829 199.859 15.5257 199.859 11.7969H195.859C195.859 16.1722 197.016 19.796 199.743 22.1904L202.382 19.1846ZM199.859 11.7969C199.859 8.06708 200.839 5.77256 202.378 4.42839L199.747 1.41536C197.016 3.80035 195.859 7.4225 195.859 11.7969H199.859ZM202.378 4.42839C204.015 2.9992 206.592 2.125 210.438 2.125V-1.875C206.054 -1.875 202.381 -0.884614 199.747 1.41536L202.378 4.42839ZM210.438 2.125C214.296 2.125 216.869 3.00026 218.493 4.4252L221.132 1.41855C218.506 -0.885678 214.829 -1.875 210.438 -1.875V2.125ZM218.497 4.42839C220.036 5.77256 221.016 8.06708 221.016 11.7969H225.016C225.016 7.4225 223.859 3.80035 221.128 1.41536L218.497 4.42839ZM221.016 11.7969C221.016 15.5257 220.037 17.829 218.493 19.1846L221.132 22.1904C223.859 19.796 225.016 16.1722 225.016 11.7969H221.016ZM217.077 4.93087C215.501 3.05786 213.113 2.34375 210.438 2.34375V6.34375C212.47 6.34375 213.489 6.87964 214.017 7.50663L217.077 4.93087ZM210.438 2.34375C207.767 2.34375 205.388 3.06034 203.804 4.92345L206.852 7.51405C207.393 6.87716 208.42 6.34375 210.438 6.34375V2.34375ZM203.798 4.93087C202.32 6.68713 201.75 9.09612 201.75 11.8125H205.75C205.75 9.57054 206.232 8.25037 206.858 7.50663L203.798 4.93087ZM201.75 11.8125C201.75 14.521 202.321 16.9235 203.798 18.6785L206.858 16.1027C206.231 15.3577 205.75 14.0415 205.75 11.8125H201.75ZM203.81 18.6922C205.395 20.5415 207.772 21.25 210.438 21.25V17.25C208.416 17.25 207.387 16.719 206.847 16.089L203.81 18.6922ZM210.438 21.25C213.108 21.25 215.494 20.5439 217.072 18.6848L214.022 16.0964C213.496 16.7165 212.475 17.25 210.438 17.25V21.25ZM217.077 18.6785C218.554 16.9235 219.125 14.521 219.125 11.8125H215.125C215.125 14.0415 214.644 15.3577 214.017 16.1027L217.077 18.6785ZM219.125 11.8125C219.125 9.09612 218.555 6.68713 217.077 4.93087L214.017 7.50663C214.643 8.25037 215.125 9.57054 215.125 11.8125H219.125ZM248.366 1.03125L246.926 2.41952L246.939 2.43261L246.951 2.44546L248.366 1.03125ZM233.725 5.01562V3.01562H231.725V5.01562H233.725ZM233.725 9.5625H231.725V11.5625H233.725V9.5625ZM246.475 10L245.035 11.3883L245.061 11.4144L245.087 11.4397L246.475 10ZM246.475 13.5469L245.061 12.1327L246.475 13.5469ZM233.725 13.9688V11.9688H231.725V13.9688H233.725ZM233.725 18.5781H231.725V20.5781H233.725V18.5781ZM248.303 22.5781L249.691 24.0178L249.704 24.0052L249.717 23.9923L248.303 22.5781ZM228.272 22.5781L226.858 23.9923L226.871 24.0052L226.884 24.0178L228.272 22.5781ZM229.834 21.5V2.04688H225.834V21.5H229.834ZM229.834 2.04688C229.834 2.08833 229.826 2.16927 229.785 2.26547C229.744 2.36179 229.691 2.42516 229.66 2.45531L226.884 -0.424064C226.2 0.235258 225.834 1.09921 225.834 2.04688H229.834ZM229.66 2.45531C229.635 2.47916 229.582 2.52137 229.5 2.55426C229.418 2.5871 229.351 2.59375 229.319 2.59375V-1.40625C228.396 -1.40625 227.549 -1.06583 226.884 -0.424064L229.66 2.45531ZM229.319 2.59375H247.334V-1.40625H229.319V2.59375ZM247.334 2.59375C247.293 2.59375 247.212 2.5851 247.116 2.54429C247.019 2.50343 246.956 2.45079 246.926 2.41952L249.805 -0.357021C249.146 -1.04076 248.282 -1.40625 247.334 -1.40625V2.59375ZM246.951 2.44546C246.93 2.42387 246.885 2.36978 246.848 2.2829C246.812 2.19542 246.803 2.11992 246.803 2.07812H250.803C250.803 1.13238 250.44 0.27732 249.78 -0.382964L246.951 2.44546ZM246.803 2.07812V3.54688H250.803V2.07812H246.803ZM246.803 3.54688C246.803 3.50508 246.812 3.42958 246.848 3.3421C246.885 3.25522 246.93 3.20113 246.951 3.17954L249.78 6.00796C250.44 5.34768 250.803 4.49262 250.803 3.54688H246.803ZM246.951 3.17954C246.985 3.14584 247.049 3.09629 247.14 3.05906C247.23 3.02218 247.302 3.01562 247.334 3.01562V7.01562C248.258 7.01562 249.115 6.67318 249.78 6.00796L246.951 3.17954ZM247.334 3.01562H233.725V7.01562H247.334V3.01562ZM231.725 5.01562V9.5625H235.725V5.01562H231.725ZM233.725 11.5625H245.444V7.5625H233.725V11.5625ZM245.444 11.5625C245.402 11.5625 245.321 11.5539 245.225 11.513C245.129 11.4722 245.065 11.4195 245.035 11.3883L247.915 8.61173C247.255 7.92799 246.391 7.5625 245.444 7.5625V11.5625ZM245.087 11.4397C245.055 11.4095 245.003 11.3462 244.962 11.2498C244.921 11.1536 244.913 11.0727 244.913 11.0312H248.913C248.913 10.0836 248.547 9.21963 247.863 8.56031L245.087 11.4397ZM244.913 11.0312V12.5H248.913V11.0312H244.913ZM244.913 12.5C244.913 12.4582 244.921 12.3827 244.958 12.2952C244.994 12.2083 245.039 12.1543 245.061 12.1327L247.889 14.9611C248.55 14.3008 248.913 13.4457 248.913 12.5H244.913ZM245.061 12.1327C245.094 12.099 245.158 12.0494 245.249 12.0122C245.339 11.9753 245.412 11.9688 245.444 11.9688V15.9688C246.368 15.9688 247.224 15.6263 247.889 14.9611L245.061 12.1327ZM245.444 11.9688H233.725V15.9688H245.444V11.9688ZM231.725 13.9688V18.5781H235.725V13.9688H231.725ZM233.725 20.5781H247.303V16.5781H233.725V20.5781ZM247.303 20.5781C247.259 20.5781 247.179 20.5691 247.087 20.5306C246.994 20.4921 246.933 20.443 246.905 20.4142L249.733 17.5858C249.079 16.9315 248.232 16.5781 247.303 16.5781V20.5781ZM246.905 20.4142C246.871 20.3805 246.821 20.317 246.784 20.226C246.747 20.1359 246.741 20.0633 246.741 20.0312H250.741C250.741 19.1073 250.398 18.251 249.733 17.5858L246.905 20.4142ZM246.741 20.0312V21.5312H250.741V20.0312H246.741ZM246.741 21.5312C246.741 21.4895 246.749 21.414 246.786 21.3265C246.822 21.2396 246.867 21.1855 246.889 21.1639L249.717 23.9923C250.378 23.3321 250.741 22.477 250.741 21.5312H246.741ZM246.915 21.1384C246.94 21.1146 246.994 21.0724 247.075 21.0395C247.157 21.0066 247.224 21 247.256 21V25C248.179 25 249.026 24.6596 249.691 24.0178L246.915 21.1384ZM247.256 21H229.319V25H247.256V21ZM229.319 21C229.351 21 229.418 21.0066 229.5 21.0395C229.582 21.0724 229.635 21.1146 229.66 21.1384L226.884 24.0178C227.549 24.6596 228.396 25 229.319 25V21ZM229.686 21.1639C229.717 21.195 229.763 21.2541 229.797 21.3378C229.83 21.4201 229.834 21.4819 229.834 21.5H225.834C225.834 22.4365 226.176 23.311 226.858 23.9923L229.686 21.1639ZM252.544 15.9531L253.706 17.5806L253.721 17.5697L253.736 17.5586L252.544 15.9531ZM260.903 18.6094L260.943 16.6098L260.923 16.6094H260.903V18.6094ZM266.372 18.7188L266.332 20.7184L266.352 20.7188H266.372V18.7188ZM265.762 14.7812L265.297 16.7263L265.309 16.7293L265.762 14.7812ZM262.45 14.0781L262.061 16.0399L262.069 16.0415L262.077 16.0431L262.45 14.0781ZM258.841 13.1875L258.269 15.1041L258.274 15.1054L258.841 13.1875ZM253.122 9.96875L251.505 11.1463L251.513 11.1576L251.522 11.1687L253.122 9.96875ZM254.434 2.17188L255.64 3.76786L255.647 3.76248L254.434 2.17188ZM262.122 0.46875L262.169 -1.53069L262.145 -1.53125H262.122V0.46875ZM266.091 0.5625L266.043 2.56194L266.067 2.5625H266.091V0.5625ZM271.856 2.21875L270.771 3.89848L270.782 3.90607L271.856 2.21875ZM268.841 6.53125L267.034 7.389L267.037 7.39611L268.841 6.53125ZM265.544 4.98438L265.504 6.98398L265.524 6.98438H265.544V4.98438ZM260.841 4.89062L260.88 2.89102L260.861 2.89062H260.841V4.89062ZM259.825 8.29688L259.147 10.1784L259.152 10.1804L259.825 8.29688ZM264.044 9.40625L263.659 11.3688L263.666 11.3702L263.673 11.3716L264.044 9.40625ZM273.262 12.7656L271.931 14.2582L271.938 14.2645L271.945 14.2708L273.262 12.7656ZM272.762 21.4375L273.968 23.0335L273.97 23.0322L272.762 21.4375ZM265.091 23.125L265.051 25.1246L265.071 25.125H265.091V23.125ZM260.356 23.0312L260.396 21.0316L260.376 21.0312H260.356V23.0312ZM254.575 21.3906L253.494 23.0733L253.501 23.0779L254.575 21.3906ZM253.997 17.2656C253.997 17.1476 254.015 17.1602 253.98 17.2458C253.961 17.2913 253.929 17.3512 253.879 17.4152C253.828 17.4799 253.769 17.5359 253.706 17.5806L251.381 14.3257C250.31 15.0907 249.997 16.2651 249.997 17.2656H253.997ZM253.736 17.5586C253.8 17.5114 253.82 17.5076 253.797 17.5165C253.77 17.527 253.702 17.5469 253.606 17.5469V13.5469C252.713 13.5469 251.95 13.9025 251.351 14.3476L253.736 17.5586ZM253.606 17.5469H255.466V13.5469H253.606V17.5469ZM255.466 17.5469C255.492 17.5469 255.51 17.5487 255.52 17.5502C255.53 17.5517 255.535 17.5531 255.536 17.5534C255.537 17.5536 255.536 17.5533 255.535 17.5529C255.534 17.5524 255.536 17.5531 255.54 17.5564C255.555 17.5667 255.663 17.6504 255.803 17.943L259.41 16.2133C259.06 15.485 258.567 14.8031 257.868 14.303C257.147 13.788 256.321 13.5469 255.466 13.5469V17.5469ZM255.803 17.943C256.78 19.9811 258.865 20.6094 260.903 20.6094V16.6094C260.229 16.6094 259.841 16.5058 259.64 16.4127C259.479 16.338 259.439 16.2749 259.41 16.2133L255.803 17.943ZM260.863 20.609L266.332 20.7184L266.412 16.7191L260.943 16.6098L260.863 20.609ZM266.372 20.7188C267.443 20.7188 268.592 20.5554 269.528 19.9438C270.612 19.2356 271.122 18.1208 271.122 16.9219H267.122C267.122 16.9644 267.115 16.9042 267.168 16.7992C267.226 16.6867 267.303 16.6195 267.34 16.5953C267.364 16.5798 267.32 16.6151 267.149 16.6523C266.98 16.6891 266.728 16.7188 266.372 16.7188V20.7188ZM271.122 16.9219C271.122 15.5017 270.204 14.5602 269.357 14.0204C268.515 13.4843 267.419 13.1131 266.216 12.8332L265.309 16.7293C266.345 16.9702 266.929 17.2163 267.207 17.3937C267.48 17.5674 267.122 17.4358 267.122 16.9219H271.122ZM266.228 12.8363C265.192 12.588 264.056 12.3471 262.823 12.1132L262.077 16.0431C263.26 16.2674 264.333 16.4953 265.297 16.7262L266.228 12.8363ZM262.839 12.1163C261.691 11.8888 260.548 11.6066 259.408 11.2696L258.274 15.1054C259.529 15.4767 260.792 15.7883 262.061 16.0399L262.839 12.1163ZM259.412 11.2709C258.314 10.9433 257.319 10.5629 256.424 10.1339L254.695 13.7411C255.8 14.2705 256.993 14.7234 258.269 15.1041L259.412 11.2709ZM256.424 10.1339C255.695 9.78456 255.141 9.32805 254.722 8.76875L251.522 11.1687C252.352 12.2761 253.424 13.1321 254.695 13.7411L256.424 10.1339ZM254.738 8.79122C254.395 8.31989 254.2 7.7514 254.2 7H250.2C250.2 8.51944 250.619 9.93011 251.505 11.1463L254.738 8.79122ZM254.2 7C254.2 5.44596 254.716 4.46511 255.64 3.76785L253.229 0.575902C251.173 2.12864 250.2 4.36654 250.2 7H254.2ZM255.647 3.76248C256.586 3.04667 258.574 2.46875 262.122 2.46875V-1.53125C258.399 -1.53125 255.262 -0.973749 253.222 0.581267L255.647 3.76248ZM262.075 2.46819L266.043 2.56194L266.138 -1.43694L262.169 -1.53069L262.075 2.46819ZM266.091 2.5625C267.861 2.5625 269.402 3.01405 270.771 3.89844L272.942 0.53906C270.894 -0.784879 268.591 -1.4375 266.091 -1.4375V2.5625ZM270.782 3.90607C272.082 4.73287 272.434 5.53385 272.434 6.32812H276.434C276.434 3.83073 275.068 1.89213 272.93 0.531427L270.782 3.90607ZM272.434 6.32812C272.434 6.44511 272.416 6.43771 272.448 6.35959C272.465 6.31826 272.494 6.26339 272.539 6.20428C272.585 6.14462 272.639 6.09257 272.695 6.05076L275.08 9.26174C276.119 8.48966 276.434 7.33397 276.434 6.32812H272.434ZM272.695 6.05076C272.627 6.1011 272.605 6.10569 272.629 6.09641C272.657 6.08553 272.731 6.0625 272.841 6.0625V10.0625C273.735 10.0625 274.494 9.69734 275.08 9.26174L272.695 6.05076ZM272.841 6.0625H270.981V10.0625H272.841V6.0625ZM270.981 6.0625C270.955 6.0625 270.937 6.06072 270.927 6.0592C270.916 6.05771 270.912 6.05625 270.911 6.05602C270.91 6.05582 270.911 6.05603 270.912 6.0565C270.913 6.05695 270.911 6.05628 270.907 6.05302C270.892 6.04265 270.784 5.95896 270.644 5.66639L267.037 7.39611C267.387 8.12437 267.88 8.80631 268.579 9.30635C269.299 9.82141 270.125 10.0625 270.981 10.0625V6.0625ZM270.647 5.67351C269.674 3.62429 267.592 2.98438 265.544 2.98438V6.98438C266.216 6.98438 266.601 7.08866 266.8 7.1817C266.958 7.25596 267.001 7.32014 267.034 7.38899L270.647 5.67351ZM265.584 2.98477L260.88 2.89102L260.801 6.89023L265.504 6.98398L265.584 2.98477ZM260.841 2.89062C259.77 2.89062 258.62 3.05396 257.684 3.66557C256.6 4.37377 256.091 5.48856 256.091 6.6875H260.091C260.091 6.645 260.098 6.70518 260.044 6.81022C259.987 6.92267 259.909 6.98989 259.872 7.01412C259.848 7.02955 259.893 6.99424 260.063 6.95712C260.232 6.92025 260.485 6.89062 260.841 6.89062V2.89062ZM256.091 6.6875C256.091 7.68292 256.556 8.4841 257.164 9.04809C257.729 9.57259 258.442 9.92438 259.147 10.1784L260.503 6.41532C260.29 6.33847 260.136 6.26765 260.029 6.20915C259.922 6.14989 259.883 6.11458 259.885 6.11597C259.888 6.11938 259.944 6.17242 259.999 6.28487C260.057 6.40493 260.091 6.54631 260.091 6.6875H256.091ZM259.152 10.1804C260.439 10.6399 261.947 11.033 263.659 11.3688L264.429 7.44367C262.849 7.1337 261.544 6.78722 260.498 6.41339L259.152 10.1804ZM263.673 11.3716C265.278 11.6744 266.89 12.0433 268.509 12.4783L269.547 8.61541C267.833 8.15465 266.122 7.76305 264.415 7.44093L263.673 11.3716ZM268.509 12.4783C269.909 12.8546 271.033 13.4573 271.931 14.2582L274.594 11.273C273.179 10.0115 271.48 9.13495 269.547 8.61541L268.509 12.4783ZM271.945 14.2708C272.684 14.9172 273.012 15.6474 273.012 16.5938H277.012C277.012 14.4776 276.174 12.6557 274.58 11.2605L271.945 14.2708ZM273.012 16.5938C273.012 18.1423 272.495 19.132 271.555 19.8428L273.97 23.0322C276.03 21.4722 277.012 19.2327 277.012 16.5938H273.012ZM271.557 19.8415C270.616 20.5523 268.629 21.125 265.091 21.125V25.125C268.803 25.125 271.93 24.5727 273.968 23.0335L271.557 19.8415ZM265.13 21.1254L260.396 21.0316L260.317 25.0309L265.051 25.1246L265.13 21.1254ZM260.356 21.0312C258.582 21.0312 257.031 20.5827 255.649 19.7033L253.501 23.0779C255.557 24.386 257.86 25.0312 260.356 25.0312V21.0312ZM255.656 19.7079C254.352 18.8702 253.997 18.062 253.997 17.2656H249.997C249.997 19.7609 251.361 21.7028 253.494 23.0733L255.656 19.7079Z" fill="#B88400"/>
</svg>
