<svg width="26" height="32" viewBox="0 0 26 32" fill="none" xmlns="http://www.w3.org/2000/svg">
<circle cx="13" cy="12" r="10" fill="white"/>
<path fill-rule="evenodd" clip-rule="evenodd" d="M25.4375 12.5455C25.4375 15.7913 24.2124 18.7492 22.202 20.9767L15.5537 30.224L15.5521 30.2228C14.9405 31.1582 14.1837 31.8699 13.1495 32C11.6952 31.8374 10.7106 30.8027 9.9371 29.5456L3.23578 20.3876C1.52396 18.2397 0.5 15.5129 0.5 12.5455C0.5 5.61679 6.08245 0 12.9687 0C19.8551 0 25.4375 5.61679 25.4375 12.5455ZM12.9687 21.8182C18.2582 21.8182 22.5462 17.5852 22.5462 12.3636C22.5462 7.14203 18.2582 2.90909 12.9687 2.90909C7.67927 2.90909 3.3913 7.14203 3.3913 12.3636C3.3913 17.5852 7.67927 21.8182 12.9687 21.8182Z" fill="#FF0000"/>
</svg>
