<svg width="32" height="32" viewBox="0 0 32 32" fill="none" xmlns="http://www.w3.org/2000/svg">
<path fill-rule="evenodd" clip-rule="evenodd" d="M28.4375 12.5455C28.4375 15.7913 27.2124 18.7492 25.202 20.9767L18.5537 30.224L18.5521 30.2228C17.9405 31.1582 17.1837 31.8699 16.1495 32C14.6952 31.8374 13.7106 30.8027 12.9371 29.5456L6.23578 20.3876C4.52396 18.2397 3.5 15.5129 3.5 12.5455C3.5 5.61679 9.08245 0 15.9687 0C22.8551 0 28.4375 5.61679 28.4375 12.5455ZM15.9687 21.8182C21.2582 21.8182 25.5462 17.5852 25.5462 12.3636C25.5462 7.14203 21.2582 2.90909 15.9687 2.90909C10.6793 2.90909 6.3913 7.14203 6.3913 12.3636C6.3913 17.5852 10.6793 21.8182 15.9687 21.8182Z" fill="#FFD361"/>
<path d="M13.5292 16.595C12.1819 16.595 11.0897 15.1074 11.0897 13.1239C11.0897 11.1404 12.1819 9.65284 13.5292 9.65284V16.595Z" fill="#FFD361"/>
<path d="M14.505 13.1239C14.505 15.5887 14.749 17.0909 14.0171 17.0909C13.2853 17.0909 13.2853 15.5887 13.2853 13.1239C13.2853 10.6592 13.2853 9.15697 14.0171 9.15697C14.749 9.15697 14.505 10.6592 14.505 13.1239Z" fill="#F7C441"/>
<path d="M18.4634 16.595C19.7803 16.595 20.8478 15.1074 20.8478 13.1239C20.8478 11.1404 19.7803 9.65284 18.4634 9.65284V16.595Z" fill="#FFD361"/>
<path d="M17.5097 13.1239C17.5097 15.5887 17.2712 17.0909 17.9866 17.0909C18.7019 17.0909 18.7019 15.5887 18.7019 13.1239C18.7019 10.6592 18.7019 9.15697 17.9866 9.15697C17.2712 9.15697 17.5097 10.6592 17.5097 13.1239Z" fill="#F7C441"/>
<path d="M19.8418 10.6446C19.8617 10.4821 19.872 10.3166 19.872 10.1487C19.872 7.95782 18.1245 6.18176 15.9688 6.18176C13.813 6.18176 12.0655 7.95782 12.0655 10.1487C12.0655 10.3166 12.0758 10.4821 12.0957 10.6446H13.0818C13.0552 10.4833 13.0413 10.3177 13.0413 10.1487C13.0413 8.50554 14.352 7.1735 15.9688 7.1735C17.5855 7.1735 18.8962 8.50554 18.8962 10.1487C18.8962 10.3177 18.8823 10.4833 18.8557 10.6446H19.8418Z" fill="url(#paint0_linear_15_72)"/>
<defs>
<linearGradient id="paint0_linear_15_72" x1="15.9688" y1="6.18176" x2="15.9688" y2="10.6446" gradientUnits="userSpaceOnUse">
<stop offset="0.213542" stop-color="#F7C441"/>
<stop offset="1" stop-color="#FFD361"/>
</linearGradient>
</defs>
</svg>
